<svg width="1200" height="600" viewBox="0 0 1200 600" fill="none" xmlns="http://www.w3.org/2000/svg">
  <defs>
    <linearGradient id="bg" x1="70" y1="60" x2="1120" y2="560" gradientUnits="userSpaceOnUse">
      <stop stop-color="#D9E6FF"/>
      <stop offset="1" stop-color="#BFD3FF"/>
    </linearGradient>
  </defs>
  <rect width="1200" height="600" rx="44" fill="url(#bg)"/>
  <circle cx="860" cy="292" r="168" fill="#4E6898" fill-opacity="0.2"/>
  <circle cx="910" cy="248" r="94" fill="#E9781A" fill-opacity="0.22"/>
  <rect x="130" y="140" width="520" height="320" rx="26" fill="#FFFFFF" fill-opacity="0.9"/>
  <rect x="188" y="202" width="142" height="142" rx="26" fill="#4E6898" fill-opacity="0.2"/>
  <path d="M259 230C230 230 207 253 207 282V326H311V282C311 253 288 230 259 230Z" fill="#4E6898"/>
  <circle cx="259" cy="341" r="12" fill="#4E6898"/>
  <rect x="360" y="218" width="230" height="20" rx="10" fill="#4E6898" fill-opacity="0.76"/>
  <rect x="360" y="261" width="200" height="16" rx="8" fill="#4E6898" fill-opacity="0.54"/>
  <rect x="360" y="299" width="165" height="16" rx="8" fill="#4E6898" fill-opacity="0.4"/>
  <rect x="360" y="337" width="210" height="16" rx="8" fill="#4E6898" fill-opacity="0.3"/>
  <rect x="770" y="422" width="260" height="34" rx="17" fill="#FFFFFF" fill-opacity="0.84"/>
</svg>
